# xmcd CD database file
#
# Track frame offsets:
#	150
#	15197
#	30947
#	46144
#	60544
#	79091
#	94757
#	108547
#	125533
#	146268
#	163052
#	177545
#	194931
#	208965
#	225207
#	244701
#	261106
#	285976
#	299391
#	317100
#	337299
#
# Disc length: 4677 seconds
#
# Revision: 0
# Processed by: cddbd v1.5PL3 Copyright (c) Steve Scherf et al.
# Submitted via: CDex 1.51
#
DISCID=2e124315
DTITLE=Norah Jones - Joss Stone - Feels Like Home - Soul Sessions
DYEAR=2004
DGENRE=Jazz
TTITLE0=Sunrise
TTITLE1=What Am I To You?
TTITLE2=Those Sweet Words
TTITLE3=Carnival Town
TTITLE4=In The Morning
TTITLE5=Be Here To Love Me
TTITLE6=Creepin' In
TTITLE7=Toes
TTITLE8=Humble Me
TTITLE9=Above Ground
TTITLE10=The Long Way Home
TTITLE11=The Prettiest Thing
TTITLE12=Don't Miss You At All
TTITLE13=The Chokin' Kind
TTITLE14=Super Duper Love
TTITLE15=Fell In Love With A Boy
TTITLE16=Victim Of A Foolish Heart
TTITLE17=Dirty Man
TTITLE18=Some Kind Of Wonderful
TTITLE19=I've Fallen In Love With You
TTITLE20=I Had A Dream
EXTD=YEAR: 2004
EXTT0=
EXTT1=
EXTT2=
EXTT3=
EXTT4=
EXTT5=
EXTT6=
EXTT7=
EXTT8=
EXTT9=
EXTT10=
EXTT11=
EXTT12=
EXTT13=
EXTT14=
EXTT15=
EXTT16=
EXTT17=
EXTT18=
EXTT19=
EXTT20=
PLAYORDER=
